<svg xmlns="http://www.w3.org/2000/svg" viewBox="456.991 -961.773 107.625 99.774"><defs><style>.a{opacity:0.254;}.b{font-size:9px;font-family:Futura-Medium, Futura;font-weight:500;}.c,.d,.e{fill:none;}.c,.e{stroke:#0f1315;}.c{stroke-width:3px;}.d{stroke:#000;stroke-width:2px;}.e{stroke-width:1px;}.f{fill:#0f1315;}.g{fill:#fff;}</style></defs><g class="a" transform="translate(-494.846 -1300.682)"><text class="b" transform="translate(984.2 436.682)"><tspan x="0" y="0">About Me</tspan></text><path class="c" d="M40.972.5c9.41,0,18.052-.059,25.937,6.48S81.445,22.521,81.445,32.874c0,8.8-.552,15.96-10.67,24.053s-18.447,8.32-29.8,8.32c-11.4,0-19.741-.227-29.859-8.32S.5,41.635.5,32.874C.5,15,18.62.5,40.972.5Z" transform="translate(966.538 357.362)"/><path class="c" d="M3794.825,1489.99s3.542-2.9,8.351-6.229,8.612-5.855,10.887-7.093,1.98-1.667,4.761,0,2.958,8.544,3.523,18.625-4.732,21.679-4.732,21.679" transform="translate(-2769.73 -1130.722)"/><path class="d" d="M3815.952,1504.356a43.015,43.015,0,0,1,4.142-5.869c2.584-3.088,4.969-6.7,6.2-6.481s2.5,4.2,2.33,7.6-3.495,15.8-3.495,15.8" transform="translate(-2780.884 -1139.21)"/><path class="d" d="M3694.14,1507.452s-.154-14.006,1.4-17.636,3.211-6.3,4.007-6.178,2.622,3.949,4.167,7.582a30.89,30.89,0,0,1,2.01,6.95" transform="translate(-2720.625 -1134.888)"/><path class="c" d="M3682.639,1509.563s-1.2-15.206.609-25.665a36.5,36.5,0,0,1,7.6-16.9,8.124,8.124,0,0,1,5.933,0c3.323,1.24,7.36,4.961,7.36,4.961l10.494,11.939" transform="translate(-2714.828 -1126)"/><path class="c" d="M3782.514,1561.751s2.479-3.462,9.958-2.922,9.774,5.218,9.774,5.218" transform="translate(-2763.726 -1173.72)"/><path class="e" d="M3798.576,1583.344s7.267-1.725,13.828-2.536a99.465,99.465,0,0,1,12.417-.706" transform="translate(-2771.559 -1184.743)"/><path class="e" d="M3820.43,1583.344a106.047,106.047,0,0,0-11.515-2.536,69.1,69.1,0,0,0-10.339-.705" transform="translate(-2841.57 -1184.744)"/><path class="e" d="M3798.576,1583.346s9.045-1.571,17.156-2.381,15.286-.86,15.286-.86" transform="translate(-2771.559 -1181.363)"/><path class="e" d="M3825.59,1583.346s-7.531-1.571-14.286-2.381q-6.336-.744-12.728-.86" transform="translate(-2846.73 -1181.363)"/><path class="e" d="M3798.576,1583.347s8.535-1.624,16.059-2.434q6.992-.74,14.037-.807" transform="translate(-2771.559 -1177.981)"/><path class="e" d="M3823.637,1583.347s-7.107-1.624-13.371-2.434a101.711,101.711,0,0,0-11.687-.807" transform="translate(-2844.777 -1177.981)"/><ellipse class="f" cx="8.965" cy="10.147" rx="8.965" ry="10.147" transform="translate(981.639 375.015)"/><ellipse class="g" cx="4.611" cy="5.557" rx="4.611" ry="5.557" transform="translate(983.176 376.465)"/><path class="c" d="M3738.1,1587.045s-.636,5.408,1.7,6,7.4-2.439,7.4-2.439,5.59,3.033,8.161,2.439,2.124-4.816,2.124-4.816" transform="translate(-2742.029 -1188.332)"/><path class="e" d="M-.055,2.961a11.179,11.179,0,0,0,5.292-.093A13.922,13.922,0,0,0,10.022-.176" transform="translate(1001.476 407.696) rotate(19)"/></g></svg>