<?xml version="1.0" encoding="iso-8859-1"?>
<!-- Generator: Adobe Illustrator 16.0.0, SVG Export Plug-In . SVG Version: 6.00 Build 0)  -->
<!DOCTYPE svg PUBLIC "-//W3C//DTD SVG 1.1//EN" "http://www.w3.org/Graphics/SVG/1.1/DTD/svg11.dtd">
<svg xmlns="http://www.w3.org/2000/svg" xmlns:xlink="http://www.w3.org/1999/xlink" version="1.1" id="Capa_1" x="0px" y="0px" width="512px" height="512px" viewBox="0 0 83.817 83.817" style="enable-background:new 0 0 83.817 83.817;" xml:space="preserve">
<g>
	<path d="M37.75,57.428H22.33c-0.553,0-1,0.448-1,1v3.547c0,0.552,0.447,1,1,1H37.75c0.553,0,1-0.448,1-1v-3.547   C38.75,57.876,38.304,57.428,37.75,57.428z M36.75,60.975H23.33V59.43H36.75V60.975z" fill="#933EC5"/>
	<g>
		<rect x="35.198" y="28.278" width="13.422" height="1.546" fill="#933EC5"/>
		<path d="M28.745,32.612c0,0.129-0.029,0.251-0.073,0.364H61.33c0.554,0,1,0.448,1,1v16.942h8.165V19.773h-41.75V32.612z     M64.381,22.59c-0.391-0.39-0.391-1.023,0-1.414s1.023-0.391,1.414,0l0.496,0.496l0.496-0.496c0.391-0.391,1.023-0.391,1.414,0    s0.391,1.024,0,1.414l-0.496,0.496l0.496,0.496c0.391,0.39,0.391,1.023,0,1.414c-0.195,0.195-0.451,0.293-0.707,0.293    s-0.512-0.098-0.707-0.293L66.292,24.5l-0.496,0.496c-0.195,0.195-0.451,0.293-0.707,0.293s-0.512-0.098-0.707-0.293    c-0.391-0.391-0.391-1.024,0-1.414l0.496-0.496L64.381,22.59z M51.073,27.278c0-0.552,0.447-1,1-1h15.422c0.553,0,1,0.448,1,1    v3.546c0,0.552-0.447,1-1,1H52.073c-0.553,0-1-0.448-1-1V27.278z M33.198,27.278c0-0.552,0.447-1,1-1H49.62c0.553,0,1,0.448,1,1    v3.546c0,0.552-0.447,1-1,1H34.198c-0.553,0-1-0.448-1-1V27.278z" fill="#933EC5"/>
		<rect x="53.073" y="28.278" width="13.422" height="1.546" fill="#933EC5"/>
		<rect x="23.33" y="40.492" width="13.421" height="13.42" fill="#933EC5"/>
		<path d="M18.58,66.122h41.75V34.976H18.58V66.122z M54.217,37.794c-0.391-0.391-0.391-1.022,0-1.414    c0.392-0.391,1.023-0.391,1.414,0l0.495,0.496l0.496-0.496c0.392-0.391,1.022-0.391,1.414,0s0.392,1.023,0,1.414l-0.496,0.496    l0.496,0.496c0.392,0.391,0.392,1.023,0,1.414c-0.194,0.195-0.451,0.293-0.707,0.293s-0.512-0.098-0.707-0.293l-0.496-0.496    L55.631,40.2c-0.195,0.195-0.451,0.293-0.707,0.293s-0.512-0.098-0.707-0.293c-0.391-0.391-0.391-1.023,0-1.414l0.496-0.496    L54.217,37.794z M40.909,42.482c0-0.552,0.447-1,1-1H57.33c0.554,0,1,0.448,1,1v3.546c0,0.552-0.446,1-1,1H41.909    c-0.553,0-1-0.448-1-1V42.482z M40.909,49.397c0-0.552,0.447-1,1-1H57.33c0.554,0,1,0.448,1,1v13.45c0,0.553-0.446,1-1,1H41.909    c-0.553,0-1-0.447-1-1V49.397z M21.33,39.492c0-0.552,0.447-1,1-1H37.75c0.553,0,1,0.448,1,1v15.42c0,0.553-0.447,1-1,1H22.33    c-0.553,0-1-0.447-1-1V39.492z" fill="#933EC5"/>
		<path d="M41.909,0C18.763,0,0,18.763,0,41.909c0,23.146,18.762,41.908,41.908,41.908c23.145,0,41.908-18.763,41.908-41.908    C83.817,18.763,65.053,0,41.909,0z M72.495,18.773v33.146c0,0.552-0.447,1-1,1H62.33v14.204c0,0.553-0.446,1-1,1H17.58    c-0.553,0-1-0.447-1-1V33.976c0-0.552,0.447-1,1-1h9.238c-0.044-0.113-0.073-0.235-0.073-0.364V18.773c0-0.552,0.447-1,1-1h43.75    C72.047,17.773,72.495,18.22,72.495,18.773z" fill="#933EC5"/>
		<rect x="42.909" y="43.482" width="13.421" height="1.546" fill="#933EC5"/>
		<rect x="42.909" y="50.397" width="13.421" height="11.45" fill="#933EC5"/>
	</g>
</g>
<g>
</g>
<g>
</g>
<g>
</g>
<g>
</g>
<g>
</g>
<g>
</g>
<g>
</g>
<g>
</g>
<g>
</g>
<g>
</g>
<g>
</g>
<g>
</g>
<g>
</g>
<g>
</g>
<g>
</g>
</svg>
