<svg xmlns="http://www.w3.org/2000/svg" viewBox="456.991 -961.773 110.625 99.774"><defs><style>.a,.e{fill:#fff;}.a{font-size:9px;font-family:Futura-Medium, Futura;font-weight:500;}.b,.c,.d{fill:none;stroke:#fff;}.b{stroke-width:3px;}.c{stroke-width:2px;}.d{stroke-width:1px;}</style></defs><text class="a" transform="translate(492.354 -863.999)"><tspan x="0" y="0">About Me</tspan></text><path class="b" d="M40.972.5c9.41,0,18.052-.059,25.937,6.48S81.445,22.521,81.445,32.874c0,8.8-.552,15.96-10.67,24.053s-18.447,8.32-29.8,8.32c-11.4,0-19.741-.227-29.859-8.32S.5,41.635.5,32.874C.5,15,18.62.5,40.972.5Z" transform="translate(472 -943.32)"/><path class="b" d="M3794.825,1489.99s3.542-2.9,8.351-6.229,8.612-5.855,10.887-7.093,1.98-1.667,4.761,0,2.958,8.544,3.523,18.625-4.732,21.679-4.732,21.679" transform="translate(-3264.576 -2431.403)"/><path class="c" d="M3815.952,1504.356a43.015,43.015,0,0,1,4.142-5.869c2.584-3.088,4.969-6.7,6.2-6.481s2.5,4.2,2.33,7.6-3.495,15.8-3.495,15.8" transform="translate(-3275.73 -2439.891)"/><path class="c" d="M3694.14,1507.452s-.154-14.006,1.4-17.636,3.211-6.3,4.007-6.178,2.622,3.949,4.167,7.582a30.89,30.89,0,0,1,2.01,6.95" transform="translate(-3215.47 -2435.569)"/><path class="b" d="M3683.248,1509.083s-1.8-14.726,0-25.186a36.5,36.5,0,0,1,7.6-16.9,8.124,8.124,0,0,1,5.933,0c3.323,1.24,7.36,4.961,7.36,4.961l10.494,11.939" transform="translate(-3209.674 -2426.682)"/><path class="b" d="M3782.514,1561.751s2.479-3.462,9.958-2.922,9.774,5.218,9.774,5.218" transform="translate(-3258.572 -2474.402)"/><path class="d" d="M3798.576,1583.344s7.267-1.725,13.828-2.536a99.465,99.465,0,0,1,12.417-.706" transform="translate(-3263.405 -2484.425)"/><path class="d" d="M3820.43,1583.344a106.047,106.047,0,0,0-11.515-2.536,69.1,69.1,0,0,0-10.339-.705" transform="translate(-3336.416 -2485.425)"/><path class="d" d="M3798.576,1583.346s9.045-1.571,17.156-2.381,15.286-.86,15.286-.86" transform="translate(-3263.405 -2481.045)"/><path class="d" d="M3825.59,1583.346s-7.531-1.571-14.286-2.381q-6.336-.744-12.728-.86" transform="translate(-3341.576 -2482.045)"/><path class="d" d="M3798.576,1583.347s8.535-1.624,16.059-2.434q6.992-.74,14.037-.807" transform="translate(-3263.405 -2477.663)"/><path class="d" d="M3823.637,1583.347s-7.107-1.624-13.371-2.434a101.711,101.711,0,0,0-11.687-.807" transform="translate(-3339.623 -2478.663)"/><ellipse class="e" cx="8.965" cy="10.147" rx="8.965" ry="10.147" transform="translate(486.793 -925.667)"/><ellipse cx="4.5" cy="5.557" rx="4.5" ry="5.557" transform="translate(488 -924.217)"/><g transform="translate(1.85)"><path class="b" d="M3738.1,1587.045s-.636,5.408,1.7,6,7.4-2.439,7.4-2.439,5.59,3.033,8.161,2.439,2.124-4.816,2.124-4.816" transform="translate(-3236.875 -2489.014)"/><path class="d" d="M-.055,2.961a11.179,11.179,0,0,0,5.292-.093A13.922,13.922,0,0,0,10.022-.176" transform="translate(506.63 -892.985) rotate(19)"/></g></svg>