<svg xmlns="http://www.w3.org/2000/svg" viewBox="456.991 -961.773 107.625 99.774"><defs><style>.a{opacity:.254}.b{font-size:9px;font-family:Futura-Medium,Futura;font-weight:500}.c,.d,.e{fill:none}.c,.e{stroke:#0f1315}.c{stroke-width:3px}.d{stroke:#000;stroke-width:2px}.e{stroke-width:1px}.f{fill:#0f1315}.g{fill:#fff}</style></defs><g class="a" transform="translate(-494.846 -1300.682)"><text class="b" transform="translate(984.2 436.682)"><tspan x="0" y="0">About Me</tspan></text><path class="c" d="M1007.51 357.862c9.41 0 18.052-.059 25.937 6.48s14.536 15.541 14.536 25.894c0 8.8-.552 15.96-10.67 24.053s-18.447 8.32-29.8 8.32c-11.4 0-19.741-.227-29.859-8.32s-10.616-15.292-10.616-24.053c0-17.874 18.12-32.374 40.472-32.374z"/><path class="c" d="M1025.095 359.268s3.542-2.9 8.351-6.229 8.612-5.855 10.887-7.093 1.98-1.667 4.761 0 2.958 8.544 3.523 18.625-4.732 21.679-4.732 21.679"/><path class="d" d="M1035.068 365.146a43.015 43.015 0 0 1 4.142-5.869c2.584-3.088 4.969-6.7 6.2-6.481s2.5 4.2 2.33 7.6-3.495 15.8-3.495 15.8m-70.73-3.632s-.154-14.006 1.4-17.636 3.211-6.3 4.007-6.178 2.622 3.949 4.167 7.582a30.89 30.89 0 0 1 2.01 6.95"/><path class="c" d="M967.811 383.563s-1.2-15.206.609-25.665a36.5 36.5 0 0 1 7.6-16.9 8.124 8.124 0 0 1 5.933 0c3.323 1.24 7.36 4.961 7.36 4.961l10.494 11.939m18.981 30.133s2.479-3.462 9.958-2.922 9.774 5.218 9.774 5.218"/><path class="e" d="M1027.017 398.601s7.267-1.725 13.828-2.536a99.465 99.465 0 0 1 12.417-.706M978.86 398.6a106.047 106.047 0 0 0-11.515-2.536 69.1 69.1 0 0 0-10.339-.705m70.011 6.624s9.045-1.571 17.156-2.381 15.286-.86 15.286-.86m-80.599 3.241s-7.531-1.571-14.286-2.381q-6.336-.744-12.728-.86m75.171 6.624s8.535-1.624 16.059-2.434q6.992-.74 14.037-.807m-78.253 3.241s-7.107-1.624-13.371-2.434a101.711 101.711 0 0 0-11.687-.807"/><ellipse class="f" cx="8.965" cy="10.147" rx="8.965" ry="10.147" transform="translate(981.639 375.015)"/><ellipse class="g" cx="4.611" cy="5.557" rx="4.611" ry="5.557" transform="translate(983.176 376.465)"/><path class="c" d="M996.071 398.713s-.636 5.408 1.7 6 7.4-2.439 7.4-2.439 5.59 3.033 8.161 2.439 2.124-4.816 2.124-4.816"/><path class="e" d="M1000.46 410.478a11.179 11.179 0 0 0 5.034 1.635 13.922 13.922 0 0 0 5.515-1.32"/></g></svg>