<svg xmlns="http://www.w3.org/2000/svg" width="512" height="512" viewBox="0 0 96.954 96.954"><path d="M48.477.065C21.747.066.001 21.782 0 48.477c.001 26.695 21.747 48.412 48.477 48.412s48.476-21.717 48.477-48.412C96.953 21.782 75.207.066 48.477.065zm31.895 22.852c5.528 6.851 8.892 15.508 9.048 24.934-1.84-.372-9.634-1.83-18.947-1.83-3.004 0-6.166.153-9.336.542a124.296 124.296 0 0 0-3.443-7.693c14.329-5.905 21.247-14.1 22.678-15.953zM48.477 7.641c10.328 0 19.77 3.839 26.982 10.161-1.143 1.559-7.333 9.294-21.152 14.52-6.395-11.697-13.4-21.376-15.066-23.625a40.819 40.819 0 0 1 9.236-1.056zm-17.592 3.974c1.412 1.942 8.422 11.725 14.982 23.329-17.606 4.626-33.242 4.93-37.014 4.93h-.4c2.709-12.495 11.153-22.878 22.432-28.259zM7.522 48.54c0-.336.008-.673.018-1.01.245.004.604.008 1.074.008 5.08 0 22.722-.423 40.901-5.819 1.103 2.16 2.155 4.35 3.129 6.538-.455.132-.91.266-1.36.411C30.817 55.28 19.563 72.78 17.833 75.639 11.421 68.415 7.522 58.926 7.522 48.54zm40.955 40.9c-9.397 0-18.06-3.182-24.979-8.515 1.169-2.294 9.659-17.584 32.092-25.392a.65.65 0 0 0 .047-.017c5.621 14.646 8.004 26.937 8.661 30.744a40.738 40.738 0 0 1-15.821 3.18zm23.194-7.211c-.549-3.15-2.755-14.67-7.85-28.719a54.046 54.046 0 0 1 8.245-.617c8.559-.001 15.255 1.873 16.811 2.346-1.85 11.161-8.238 20.812-17.206 26.99z" fill="#1a2930"/></svg>