<svg xmlns="http://www.w3.org/2000/svg" viewBox="0 0 473.931 473.931"><circle cx="236.966" cy="236.966" r="236.966" fill="#357180"/><path fill="#ebf6f9" d="M107.172 370.54L73.248 158.112l293.644-46.893 33.924 212.428z"/><path fill="#dbf0f5" d="M392.645 313.496l-278.259 45.803-31.543-193.296L361.106 120.2z"/><path d="M383.837 279.45l-43.853-31.446s-13.074-12.127-22.997-9.916c-8.935 2.002-17.612 15.027-19.248 17.594l-14.701-10.544s-15.326-14.226-26.959-11.618c-11.637 2.601-22.967 21.272-22.967 21.272l-3.225 4.483-27.67-19.858s-18.832-17.474-33.126-14.282c-14.297 3.195-28.232 26.147-28.232 26.147l-33.399 46.555 9.59 58.068 271.981-44.778-5.194-31.677z" fill="#6cc077"/><path d="M246.855 189.112c-.015-.318.153-.621.086-.943-.816-4.954-6.829-8.082-13.429-7.001-.868.146-1.594.513-2.398.775-2.406-2.301-6.32-3.555-10.642-2.847-5.594.92-9.534 4.692-9.931 8.834-5.253 1.968-8.756 6.181-8.03 10.593.688 4.172 4.894 7.012 10.099 7.461 2.327 3.532 7.416 5.553 13.055 4.629 5.111-.842 9.066-3.839 10.57-7.427a13.63 13.63 0 0 0 4.393-.007c5.86-.958 10.02-5.306 9.306-9.71-.299-1.805-1.511-3.242-3.079-4.357zm57.728 2.062c-.079-.217-.258-.389-.292-.61-.576-3.51 2.761-7.001 7.446-7.772.621-.101 1.19-.019 1.785-.019 1.096-2.11 3.454-3.843 6.511-4.344 3.985-.662 7.491.984 8.711 3.674 3.985.138 7.3 2.17 7.813 5.31.49 2.967-1.706 5.833-5.093 7.323-.756 2.9-3.734 5.429-7.734 6.088-3.633.599-6.978-.528-8.816-2.586a9.782 9.782 0 0 1-2.952.988c-4.168.688-7.959-1.287-8.471-4.415-.221-1.283.269-2.526 1.092-3.637z" fill="#67b8cb"/><circle cx="357.001" cy="300.239" r="62.027" fill="#0ea24a"/><g fill="#fff"><path d="M349.518 268.022h18.971v65.952h-18.971z"/><path d="M326.02 291.521h65.956v18.971H326.02z"/></g></svg>