<svg xmlns="http://www.w3.org/2000/svg" width="512" height="512" viewBox="0 0 55.915 55.915"><g fill="#2a4354"><path d="M1 53.132h43.75a1 1 0 0 0 1-1V37.929h9.165a1 1 0 0 0 1-1V3.783a1 1 0 0 0-1-1h-43.75a1 1 0 0 0-1 1v13.839c0 .129.029.251.073.364H1a1 1 0 0 0-1 1v33.146c0 .554.447 1 1 1zm11.165-35.51V4.783h41.75v31.146H45.75V18.986a1 1 0 0 0-1-1H12.092c.044-.113.073-.235.073-.364zM2 19.986h41.75v31.146H2V19.986z"/><path d="M21.171 23.502H5.75a1 1 0 0 0-1 1v15.42a1 1 0 0 0 1 1h15.421a1 1 0 0 0 1-1v-15.42a1 1 0 0 0-1-1zm-1 15.42H6.75v-13.42h13.421v13.42zm20.579-5.515H25.329a1 1 0 0 0-1 1v13.45a1 1 0 0 0 1 1H40.75a1 1 0 0 0 1-1v-13.45a1 1 0 0 0-1-1zm-1 13.45H26.329v-11.45H39.75v11.45zm-18.579-4.419H5.75a1 1 0 0 0-1 1v3.547a1 1 0 0 0 1 1h15.421a1 1 0 0 0 1-1v-3.547a1 1 0 0 0-1-1zm-1 3.546H6.75v-1.545h13.421v1.545zM40.75 26.492H25.329a1 1 0 0 0-1 1v3.546a1 1 0 0 0 1 1H40.75a1 1 0 0 0 1-1v-3.546a1 1 0 0 0-1-1zm-1 3.546H26.329v-1.546H39.75v1.546zm1.707-8.648a.999.999 0 0 0-1.414 0l-.496.496-.494-.496a.999.999 0 1 0-1.414 1.414l.494.496-.494.496a.997.997 0 0 0 0 1.414.997.997 0 0 0 1.414 0l.494-.496.496.496a.997.997 0 0 0 1.414 0 .999.999 0 0 0 0-1.414l-.496-.496.496-.496a.999.999 0 0 0 0-1.414zm10.458-5.556v-3.546a1 1 0 0 0-1-1H35.493a1 1 0 0 0-1 1v3.546a1 1 0 0 0 1 1h15.422c.554 0 1-.447 1-1zm-2-1H36.493v-1.546h13.422v1.546zM33.04 11.288H17.618a1 1 0 0 0-1 1v3.546a1 1 0 0 0 1 1H33.04a1 1 0 0 0 1-1v-3.546a1 1 0 0 0-1-1zm-1 3.546H18.618v-1.546H32.04v1.546zm15.763-4.829c.194.195.45.293.707.293a.993.993 0 0 0 .706-.293l.496-.496.496.496a.996.996 0 0 0 1.414 0 .997.997 0 0 0 0-1.414l-.496-.496.496-.496c.392-.39.392-1.023 0-1.414s-1.022-.391-1.414 0l-.496.496-.496-.496a.998.998 0 0 0-1.413 0 .997.997 0 0 0 0 1.414l.495.496-.495.496a.997.997 0 0 0 0 1.414z"/></g></svg>