<svg xmlns="http://www.w3.org/2000/svg" viewBox="3003 1176 543.682 460.389"><g data-name="Group 75"><path data-name="Path 179" class="cls-1" d="M3530.654 1241.052q-4.022 1.174-8.041 2.191c-16.384 4.137-17.89-1.322-6.028-13.366a109.305 109.305 0 0 0 14.082-17.61c9.137-14.217 1.212-20.417-14.333-13.776q-8.318 3.554-16.9 6.432c-16.017 5.379-38.746-2.735-53.018-11.787q-27.027-17.139-61.438-17.136-48.205 0-82.192 33.984t-33.989 82.191a122.7 122.7 0 0 0 .747 13.378c.814 7.362-11.585 12.7-28.317 10.336A321.522 321.522 0 0 1 3138.056 1283a330.852 330.852 0 0 1-85.568-62.938c-11.819-12.086-27.8-11.045-32.217 5.27a116.408 116.408 0 0 0-3.959 30.52 113.17 113.17 0 0 0 14.027 55.392 118.936 118.936 0 0 0 16.353 23c10.521 11.549 8.911 18.25-5.734 14.144s-25.367-10.2-25.367-9.8v.722q0 42.072 26.432 73.911a115.626 115.626 0 0 0 37.834 30.272c15.147 7.5 22.2 11.688 13.733 12.784a120.093 120.093 0 0 1-15.422.991q-5.25 0-11-.483c-6.059-.514-7.148 12.111 2.038 26.3a116.322 116.322 0 0 0 28.03 29.762 113.677 113.677 0 0 0 37.417 18.794c16.255 4.633 19.517 13.073 5.024 21.763q-53.797 32.277-119.061 32.275-7.353 0-14.045-.324c-7.754-.373-2.552 6.456 12.417 14.3q70.163 36.748 151.972 36.738 61.855 0 116.176-19.6 54.3-19.6 92.791-52.516a351.4 351.4 0 0 0 66.365-75.711 337.71 337.71 0 0 0 41.543-89.376 330.266 330.266 0 0 0 13.662-93.338c0-2.809-.024-5.331-.067-7.552-.086-4.174 10.955-15.472 23.28-27.032q8.344-7.83 15.937-16.444c11.183-12.692 6.232-18.506-9.993-13.772z"/></g></svg>